<mxfile host="app.diagrams.net" agent="Mozilla/5.0 (Windows NT 10.0; Win64; x64) AppleWebKit/537.36 (KHTML, like Gecko) Chrome/126.0.0.0 Safari/537.36" version="24.7.5">
  <diagram name="PÃ¡gina-1" id="m194DB5OODm50t4TiOIn">
    <mxGraphModel dx="712" dy="1017" grid="1" gridSize="10" guides="1" tooltips="1" connect="1" arrows="1" fold="1" page="1" pageScale="1" pageWidth="827" pageHeight="1169" math="0" shadow="0">
      <root>
        <mxCell id="0" />
        <mxCell id="1" parent="0" />
        <mxCell id="oNFGNhtA4SceddN9MFem-205" value="" style="group" parent="1" vertex="1" connectable="0">
          <mxGeometry x="40" y="410" width="1000" height="103" as="geometry" />
        </mxCell>
        <mxCell id="oNFGNhtA4SceddN9MFem-169" value="" style="group" parent="oNFGNhtA4SceddN9MFem-205" vertex="1" connectable="0">
          <mxGeometry y="30" width="1000" height="73" as="geometry" />
        </mxCell>
        <mxCell id="oNFGNhtA4SceddN9MFem-156" value="" style="group" parent="oNFGNhtA4SceddN9MFem-169" vertex="1" connectable="0">
          <mxGeometry width="200" height="43" as="geometry" />
        </mxCell>
        <mxCell id="oNFGNhtA4SceddN9MFem-154" value="" style="swimlane;startSize=0;" parent="oNFGNhtA4SceddN9MFem-156" vertex="1">
          <mxGeometry width="200" height="41.5" as="geometry" />
        </mxCell>
        <mxCell id="oNFGNhtA4SceddN9MFem-155" value="&lt;font style=&quot;font-size: 24px;&quot;&gt;pessoa_id&lt;/font&gt;" style="text;html=1;align=center;verticalAlign=middle;resizable=0;points=[];autosize=1;strokeColor=none;fillColor=none;" parent="oNFGNhtA4SceddN9MFem-154" vertex="1">
          <mxGeometry x="48" y="1.5" width="130" height="40" as="geometry" />
        </mxCell>
        <mxCell id="oNFGNhtA4SceddN9MFem-186" value="&lt;font color=&quot;#014e66&quot; style=&quot;font-size: 24px;&quot;&gt;PK&lt;/font&gt;" style="text;html=1;align=center;verticalAlign=middle;whiteSpace=wrap;rounded=0;" parent="oNFGNhtA4SceddN9MFem-154" vertex="1">
          <mxGeometry x="-10" y="6.5" width="60" height="30" as="geometry" />
        </mxCell>
        <mxCell id="oNFGNhtA4SceddN9MFem-157" value="" style="group" parent="oNFGNhtA4SceddN9MFem-169" vertex="1" connectable="0">
          <mxGeometry x="200" width="200" height="43" as="geometry" />
        </mxCell>
        <mxCell id="oNFGNhtA4SceddN9MFem-158" value="" style="swimlane;startSize=0;" parent="oNFGNhtA4SceddN9MFem-157" vertex="1">
          <mxGeometry width="200" height="41.5" as="geometry">
            <mxRectangle width="50" height="40" as="alternateBounds" />
          </mxGeometry>
        </mxCell>
        <mxCell id="oNFGNhtA4SceddN9MFem-159" value="&lt;font style=&quot;font-size: 24px;&quot;&gt;cpf&lt;/font&gt;" style="text;html=1;align=center;verticalAlign=middle;resizable=0;points=[];autosize=1;strokeColor=none;fillColor=none;" parent="oNFGNhtA4SceddN9MFem-158" vertex="1">
          <mxGeometry x="70" y="1.5" width="60" height="40" as="geometry" />
        </mxCell>
        <mxCell id="oNFGNhtA4SceddN9MFem-204" value="&lt;b&gt;Cliente&lt;/b&gt;" style="text;html=1;align=left;verticalAlign=middle;whiteSpace=wrap;rounded=0;" parent="oNFGNhtA4SceddN9MFem-205" vertex="1">
          <mxGeometry width="110" height="30" as="geometry" />
        </mxCell>
        <mxCell id="oNFGNhtA4SceddN9MFem-207" value="" style="group" parent="1" vertex="1" connectable="0">
          <mxGeometry x="40" y="530" width="1000" height="73" as="geometry" />
        </mxCell>
        <mxCell id="oNFGNhtA4SceddN9MFem-208" value="" style="group" parent="oNFGNhtA4SceddN9MFem-207" vertex="1" connectable="0">
          <mxGeometry y="30" width="1000" height="43" as="geometry" />
        </mxCell>
        <mxCell id="oNFGNhtA4SceddN9MFem-209" value="" style="group" parent="oNFGNhtA4SceddN9MFem-208" vertex="1" connectable="0">
          <mxGeometry width="200" height="43" as="geometry" />
        </mxCell>
        <mxCell id="oNFGNhtA4SceddN9MFem-210" value="" style="swimlane;startSize=0;" parent="oNFGNhtA4SceddN9MFem-209" vertex="1">
          <mxGeometry width="200" height="41.5" as="geometry" />
        </mxCell>
        <mxCell id="oNFGNhtA4SceddN9MFem-211" value="&lt;font style=&quot;font-size: 24px;&quot;&gt;pessoa_id&lt;/font&gt;" style="text;html=1;align=center;verticalAlign=middle;resizable=0;points=[];autosize=1;strokeColor=none;fillColor=none;" parent="oNFGNhtA4SceddN9MFem-210" vertex="1">
          <mxGeometry x="48" y="1.5" width="130" height="40" as="geometry" />
        </mxCell>
        <mxCell id="oNFGNhtA4SceddN9MFem-212" value="&lt;font color=&quot;#014e66&quot; style=&quot;font-size: 24px;&quot;&gt;PK&lt;/font&gt;" style="text;html=1;align=center;verticalAlign=middle;whiteSpace=wrap;rounded=0;" parent="oNFGNhtA4SceddN9MFem-210" vertex="1">
          <mxGeometry x="-10" y="6.5" width="60" height="30" as="geometry" />
        </mxCell>
        <mxCell id="oNFGNhtA4SceddN9MFem-213" value="" style="group" parent="oNFGNhtA4SceddN9MFem-208" vertex="1" connectable="0">
          <mxGeometry x="200" width="200" height="43" as="geometry" />
        </mxCell>
        <mxCell id="oNFGNhtA4SceddN9MFem-214" value="" style="swimlane;startSize=0;" parent="oNFGNhtA4SceddN9MFem-213" vertex="1">
          <mxGeometry width="200" height="41.5" as="geometry">
            <mxRectangle width="50" height="40" as="alternateBounds" />
          </mxGeometry>
        </mxCell>
        <mxCell id="oNFGNhtA4SceddN9MFem-215" value="&lt;font style=&quot;font-size: 24px;&quot;&gt;salario&lt;/font&gt;" style="text;html=1;align=center;verticalAlign=middle;resizable=0;points=[];autosize=1;strokeColor=none;fillColor=none;" parent="oNFGNhtA4SceddN9MFem-214" vertex="1">
          <mxGeometry x="55" y="1.5" width="90" height="40" as="geometry" />
        </mxCell>
        <mxCell id="oNFGNhtA4SceddN9MFem-225" value="&lt;b&gt;Funcionario&lt;/b&gt;" style="text;html=1;align=left;verticalAlign=middle;whiteSpace=wrap;rounded=0;" parent="oNFGNhtA4SceddN9MFem-207" vertex="1">
          <mxGeometry width="110" height="30" as="geometry" />
        </mxCell>
        <mxCell id="oNFGNhtA4SceddN9MFem-226" value="" style="group" parent="1" vertex="1" connectable="0">
          <mxGeometry x="40" y="650" width="1050" height="73" as="geometry" />
        </mxCell>
        <mxCell id="oNFGNhtA4SceddN9MFem-227" value="" style="group" parent="oNFGNhtA4SceddN9MFem-226" vertex="1" connectable="0">
          <mxGeometry y="30" width="1050" height="43" as="geometry" />
        </mxCell>
        <mxCell id="oNFGNhtA4SceddN9MFem-228" value="" style="group" parent="oNFGNhtA4SceddN9MFem-227" vertex="1" connectable="0">
          <mxGeometry width="320" height="43" as="geometry" />
        </mxCell>
        <mxCell id="oNFGNhtA4SceddN9MFem-229" value="" style="swimlane;startSize=0;" parent="oNFGNhtA4SceddN9MFem-228" vertex="1">
          <mxGeometry width="320" height="41.5" as="geometry" />
        </mxCell>
        <mxCell id="oNFGNhtA4SceddN9MFem-230" value="&lt;font style=&quot;font-size: 24px;&quot;&gt;funcionario_pessoa_id&lt;/font&gt;" style="text;html=1;align=center;verticalAlign=middle;resizable=0;points=[];autosize=1;strokeColor=none;fillColor=none;" parent="oNFGNhtA4SceddN9MFem-229" vertex="1">
          <mxGeometry x="47" width="260" height="40" as="geometry" />
        </mxCell>
        <mxCell id="oNFGNhtA4SceddN9MFem-231" value="&lt;font color=&quot;#014e66&quot; style=&quot;font-size: 24px;&quot;&gt;PK&lt;/font&gt;" style="text;html=1;align=center;verticalAlign=middle;whiteSpace=wrap;rounded=0;" parent="oNFGNhtA4SceddN9MFem-229" vertex="1">
          <mxGeometry x="-10" y="6.5" width="60" height="30" as="geometry" />
        </mxCell>
        <mxCell id="oNFGNhtA4SceddN9MFem-232" value="" style="group" parent="oNFGNhtA4SceddN9MFem-227" vertex="1" connectable="0">
          <mxGeometry x="318" width="200" height="43" as="geometry" />
        </mxCell>
        <mxCell id="oNFGNhtA4SceddN9MFem-233" value="" style="swimlane;startSize=0;" parent="oNFGNhtA4SceddN9MFem-232" vertex="1">
          <mxGeometry width="200" height="41.5" as="geometry">
            <mxRectangle width="50" height="40" as="alternateBounds" />
          </mxGeometry>
        </mxCell>
        <mxCell id="oNFGNhtA4SceddN9MFem-234" value="&lt;font style=&quot;font-size: 24px;&quot;&gt;data_inicio&lt;/font&gt;" style="text;html=1;align=center;verticalAlign=middle;resizable=0;points=[];autosize=1;strokeColor=none;fillColor=none;" parent="oNFGNhtA4SceddN9MFem-233" vertex="1">
          <mxGeometry x="30" y="1.5" width="140" height="40" as="geometry" />
        </mxCell>
        <mxCell id="oNFGNhtA4SceddN9MFem-244" value="&lt;b&gt;Gerente&lt;/b&gt;" style="text;html=1;align=left;verticalAlign=middle;whiteSpace=wrap;rounded=0;" parent="oNFGNhtA4SceddN9MFem-226" vertex="1">
          <mxGeometry width="110" height="30" as="geometry" />
        </mxCell>
        <mxCell id="oNFGNhtA4SceddN9MFem-271" value="" style="group" parent="1" vertex="1" connectable="0">
          <mxGeometry x="40" y="290" width="1230" height="73" as="geometry" />
        </mxCell>
        <mxCell id="oNFGNhtA4SceddN9MFem-206" value="" style="group" parent="oNFGNhtA4SceddN9MFem-271" vertex="1" connectable="0">
          <mxGeometry width="1000" height="73" as="geometry" />
        </mxCell>
        <mxCell id="oNFGNhtA4SceddN9MFem-136" value="&lt;b&gt;Pessoa&lt;/b&gt;" style="text;html=1;align=left;verticalAlign=middle;whiteSpace=wrap;rounded=0;" parent="oNFGNhtA4SceddN9MFem-206" vertex="1">
          <mxGeometry width="110" height="30" as="geometry" />
        </mxCell>
        <mxCell id="oNFGNhtA4SceddN9MFem-187" value="" style="group" parent="oNFGNhtA4SceddN9MFem-206" vertex="1" connectable="0">
          <mxGeometry y="30" width="1000" height="43" as="geometry" />
        </mxCell>
        <mxCell id="oNFGNhtA4SceddN9MFem-188" value="" style="group" parent="oNFGNhtA4SceddN9MFem-187" vertex="1" connectable="0">
          <mxGeometry width="200" height="43" as="geometry" />
        </mxCell>
        <mxCell id="oNFGNhtA4SceddN9MFem-189" value="" style="swimlane;startSize=0;" parent="oNFGNhtA4SceddN9MFem-188" vertex="1">
          <mxGeometry width="200" height="41.5" as="geometry" />
        </mxCell>
        <mxCell id="oNFGNhtA4SceddN9MFem-190" value="&lt;font style=&quot;font-size: 24px;&quot;&gt;id&lt;/font&gt;" style="text;html=1;align=center;verticalAlign=middle;resizable=0;points=[];autosize=1;strokeColor=none;fillColor=none;" parent="oNFGNhtA4SceddN9MFem-189" vertex="1">
          <mxGeometry x="91" y="1.5" width="40" height="40" as="geometry" />
        </mxCell>
        <mxCell id="oNFGNhtA4SceddN9MFem-191" value="&lt;font color=&quot;#014e66&quot; style=&quot;font-size: 24px;&quot;&gt;PK&lt;/font&gt;" style="text;html=1;align=center;verticalAlign=middle;whiteSpace=wrap;rounded=0;" parent="oNFGNhtA4SceddN9MFem-189" vertex="1">
          <mxGeometry x="-10" y="6.5" width="60" height="30" as="geometry" />
        </mxCell>
        <mxCell id="oNFGNhtA4SceddN9MFem-192" value="" style="group" parent="oNFGNhtA4SceddN9MFem-187" vertex="1" connectable="0">
          <mxGeometry x="200" width="200" height="43" as="geometry" />
        </mxCell>
        <mxCell id="oNFGNhtA4SceddN9MFem-193" value="" style="swimlane;startSize=0;" parent="oNFGNhtA4SceddN9MFem-192" vertex="1">
          <mxGeometry width="200" height="41.5" as="geometry">
            <mxRectangle width="50" height="40" as="alternateBounds" />
          </mxGeometry>
        </mxCell>
        <mxCell id="oNFGNhtA4SceddN9MFem-194" value="&lt;span style=&quot;font-size: 24px;&quot;&gt;nome&lt;/span&gt;" style="text;html=1;align=center;verticalAlign=middle;resizable=0;points=[];autosize=1;strokeColor=none;fillColor=none;" parent="oNFGNhtA4SceddN9MFem-193" vertex="1">
          <mxGeometry x="60" y="1.5" width="80" height="40" as="geometry" />
        </mxCell>
        <mxCell id="oNFGNhtA4SceddN9MFem-195" value="" style="group" parent="oNFGNhtA4SceddN9MFem-187" vertex="1" connectable="0">
          <mxGeometry x="400" width="200" height="43" as="geometry" />
        </mxCell>
        <mxCell id="oNFGNhtA4SceddN9MFem-196" value="" style="swimlane;startSize=0;" parent="oNFGNhtA4SceddN9MFem-195" vertex="1">
          <mxGeometry width="200" height="41.5" as="geometry" />
        </mxCell>
        <mxCell id="oNFGNhtA4SceddN9MFem-197" value="&lt;font style=&quot;font-size: 24px;&quot;&gt;endereco&lt;/font&gt;" style="text;html=1;align=center;verticalAlign=middle;resizable=0;points=[];autosize=1;strokeColor=none;fillColor=none;" parent="oNFGNhtA4SceddN9MFem-196" vertex="1">
          <mxGeometry x="40" y="1.5" width="120" height="40" as="geometry" />
        </mxCell>
        <mxCell id="V713UnPpELgrnKrd9nGP-1" value="" style="group" vertex="1" connectable="0" parent="oNFGNhtA4SceddN9MFem-187">
          <mxGeometry x="600" width="200" height="43" as="geometry" />
        </mxCell>
        <mxCell id="V713UnPpELgrnKrd9nGP-2" value="" style="swimlane;startSize=0;" vertex="1" parent="V713UnPpELgrnKrd9nGP-1">
          <mxGeometry width="200" height="41.5" as="geometry" />
        </mxCell>
        <mxCell id="V713UnPpELgrnKrd9nGP-3" value="&lt;font style=&quot;font-size: 24px;&quot;&gt;telefone_pessoa&lt;/font&gt;" style="text;html=1;align=center;verticalAlign=middle;resizable=0;points=[];autosize=1;strokeColor=none;fillColor=none;" vertex="1" parent="V713UnPpELgrnKrd9nGP-2">
          <mxGeometry y="1.5" width="200" height="40" as="geometry" />
        </mxCell>
        <mxCell id="oNFGNhtA4SceddN9MFem-275" value="" style="group" parent="1" vertex="1" connectable="0">
          <mxGeometry x="40" y="770" width="1400" height="73" as="geometry" />
        </mxCell>
        <mxCell id="oNFGNhtA4SceddN9MFem-267" value="" style="group" parent="oNFGNhtA4SceddN9MFem-275" vertex="1" connectable="0">
          <mxGeometry width="1200" height="73" as="geometry" />
        </mxCell>
        <mxCell id="oNFGNhtA4SceddN9MFem-245" value="" style="group" parent="oNFGNhtA4SceddN9MFem-267" vertex="1" connectable="0">
          <mxGeometry width="1000" height="73" as="geometry" />
        </mxCell>
        <mxCell id="oNFGNhtA4SceddN9MFem-246" value="" style="group" parent="oNFGNhtA4SceddN9MFem-245" vertex="1" connectable="0">
          <mxGeometry y="30" width="1000" height="43" as="geometry" />
        </mxCell>
        <mxCell id="oNFGNhtA4SceddN9MFem-247" value="" style="group" parent="oNFGNhtA4SceddN9MFem-246" vertex="1" connectable="0">
          <mxGeometry width="200" height="43" as="geometry" />
        </mxCell>
        <mxCell id="oNFGNhtA4SceddN9MFem-248" value="" style="swimlane;startSize=0;" parent="oNFGNhtA4SceddN9MFem-247" vertex="1">
          <mxGeometry width="200" height="41.5" as="geometry" />
        </mxCell>
        <mxCell id="oNFGNhtA4SceddN9MFem-249" value="&lt;font style=&quot;font-size: 24px;&quot;&gt;id&lt;/font&gt;" style="text;html=1;align=center;verticalAlign=middle;resizable=0;points=[];autosize=1;strokeColor=none;fillColor=none;" parent="oNFGNhtA4SceddN9MFem-248" vertex="1">
          <mxGeometry x="80" y="1.5" width="40" height="40" as="geometry" />
        </mxCell>
        <mxCell id="oNFGNhtA4SceddN9MFem-250" value="&lt;font color=&quot;#014e66&quot; style=&quot;font-size: 24px;&quot;&gt;PK&lt;/font&gt;" style="text;html=1;align=center;verticalAlign=middle;whiteSpace=wrap;rounded=0;" parent="oNFGNhtA4SceddN9MFem-248" vertex="1">
          <mxGeometry x="-10" y="6.5" width="60" height="30" as="geometry" />
        </mxCell>
        <mxCell id="oNFGNhtA4SceddN9MFem-251" value="" style="group" parent="oNFGNhtA4SceddN9MFem-246" vertex="1" connectable="0">
          <mxGeometry x="200" width="200" height="43" as="geometry" />
        </mxCell>
        <mxCell id="oNFGNhtA4SceddN9MFem-252" value="" style="swimlane;startSize=0;" parent="oNFGNhtA4SceddN9MFem-251" vertex="1">
          <mxGeometry width="200" height="41.5" as="geometry">
            <mxRectangle width="50" height="40" as="alternateBounds" />
          </mxGeometry>
        </mxCell>
        <mxCell id="oNFGNhtA4SceddN9MFem-253" value="&lt;font style=&quot;font-size: 24px;&quot;&gt;data&lt;/font&gt;" style="text;html=1;align=center;verticalAlign=middle;resizable=0;points=[];autosize=1;strokeColor=none;fillColor=none;" parent="oNFGNhtA4SceddN9MFem-252" vertex="1">
          <mxGeometry x="65" y="1.5" width="70" height="40" as="geometry" />
        </mxCell>
        <mxCell id="oNFGNhtA4SceddN9MFem-254" value="" style="group" parent="oNFGNhtA4SceddN9MFem-246" vertex="1" connectable="0">
          <mxGeometry x="400" width="320" height="43" as="geometry" />
        </mxCell>
        <mxCell id="oNFGNhtA4SceddN9MFem-255" value="" style="swimlane;startSize=0;" parent="oNFGNhtA4SceddN9MFem-254" vertex="1">
          <mxGeometry width="280" height="41.5" as="geometry" />
        </mxCell>
        <mxCell id="oNFGNhtA4SceddN9MFem-256" value="&lt;font style=&quot;font-size: 24px;&quot;&gt;funcionario_id&lt;/font&gt;" style="text;html=1;align=center;verticalAlign=middle;resizable=0;points=[];autosize=1;strokeColor=none;fillColor=none;" parent="oNFGNhtA4SceddN9MFem-255" vertex="1">
          <mxGeometry x="54" y="1.5" width="170" height="40" as="geometry" />
        </mxCell>
        <mxCell id="oNFGNhtA4SceddN9MFem-263" value="&lt;b&gt;Locacao&lt;/b&gt;" style="text;html=1;align=left;verticalAlign=middle;whiteSpace=wrap;rounded=0;" parent="oNFGNhtA4SceddN9MFem-245" vertex="1">
          <mxGeometry width="110" height="30" as="geometry" />
        </mxCell>
        <mxCell id="GgJrNzVZVlJhMmaJBiFv-173" value="" style="group" parent="1" vertex="1" connectable="0">
          <mxGeometry x="41" y="1250" width="1200" height="73" as="geometry" />
        </mxCell>
        <mxCell id="GgJrNzVZVlJhMmaJBiFv-311" value="" style="group" parent="1" vertex="1" connectable="0">
          <mxGeometry x="41" y="890" width="1000" height="73" as="geometry" />
        </mxCell>
        <mxCell id="GgJrNzVZVlJhMmaJBiFv-312" value="" style="group" parent="GgJrNzVZVlJhMmaJBiFv-311" vertex="1" connectable="0">
          <mxGeometry y="30" width="1000" height="43" as="geometry" />
        </mxCell>
        <mxCell id="GgJrNzVZVlJhMmaJBiFv-313" value="" style="group" parent="GgJrNzVZVlJhMmaJBiFv-312" vertex="1" connectable="0">
          <mxGeometry width="200" height="43" as="geometry" />
        </mxCell>
        <mxCell id="GgJrNzVZVlJhMmaJBiFv-314" value="" style="swimlane;startSize=0;" parent="GgJrNzVZVlJhMmaJBiFv-313" vertex="1">
          <mxGeometry width="200" height="41.5" as="geometry" />
        </mxCell>
        <mxCell id="GgJrNzVZVlJhMmaJBiFv-315" value="&lt;font style=&quot;font-size: 24px;&quot;&gt;id&lt;/font&gt;" style="text;html=1;align=center;verticalAlign=middle;resizable=0;points=[];autosize=1;strokeColor=none;fillColor=none;" parent="GgJrNzVZVlJhMmaJBiFv-314" vertex="1">
          <mxGeometry x="80" y="1.5" width="40" height="40" as="geometry" />
        </mxCell>
        <mxCell id="GgJrNzVZVlJhMmaJBiFv-316" value="&lt;font color=&quot;#014e66&quot; style=&quot;font-size: 24px;&quot;&gt;PK&lt;/font&gt;" style="text;html=1;align=center;verticalAlign=middle;whiteSpace=wrap;rounded=0;" parent="GgJrNzVZVlJhMmaJBiFv-314" vertex="1">
          <mxGeometry x="-10" y="6.5" width="60" height="30" as="geometry" />
        </mxCell>
        <mxCell id="GgJrNzVZVlJhMmaJBiFv-317" value="" style="group" parent="GgJrNzVZVlJhMmaJBiFv-312" vertex="1" connectable="0">
          <mxGeometry x="200" width="200" height="43" as="geometry" />
        </mxCell>
        <mxCell id="GgJrNzVZVlJhMmaJBiFv-318" value="" style="swimlane;startSize=0;" parent="GgJrNzVZVlJhMmaJBiFv-317" vertex="1">
          <mxGeometry width="200" height="41.5" as="geometry">
            <mxRectangle width="50" height="40" as="alternateBounds" />
          </mxGeometry>
        </mxCell>
        <mxCell id="GgJrNzVZVlJhMmaJBiFv-319" value="&lt;font style=&quot;font-size: 24px;&quot;&gt;descricao&lt;/font&gt;" style="text;html=1;align=center;verticalAlign=middle;resizable=0;points=[];autosize=1;strokeColor=none;fillColor=none;" parent="GgJrNzVZVlJhMmaJBiFv-318" vertex="1">
          <mxGeometry x="35" y="1.5" width="130" height="40" as="geometry" />
        </mxCell>
        <mxCell id="GgJrNzVZVlJhMmaJBiFv-323" value="&lt;b&gt;Categoria&lt;/b&gt;" style="text;html=1;align=left;verticalAlign=middle;whiteSpace=wrap;rounded=0;" parent="GgJrNzVZVlJhMmaJBiFv-311" vertex="1">
          <mxGeometry width="110" height="30" as="geometry" />
        </mxCell>
        <mxCell id="GgJrNzVZVlJhMmaJBiFv-324" value="" style="group" parent="1" vertex="1" connectable="0">
          <mxGeometry x="41" y="1010" width="1000" height="73" as="geometry" />
        </mxCell>
        <mxCell id="GgJrNzVZVlJhMmaJBiFv-325" value="" style="group" parent="GgJrNzVZVlJhMmaJBiFv-324" vertex="1" connectable="0">
          <mxGeometry y="30" width="1000" height="43" as="geometry" />
        </mxCell>
        <mxCell id="GgJrNzVZVlJhMmaJBiFv-326" value="" style="group" parent="GgJrNzVZVlJhMmaJBiFv-325" vertex="1" connectable="0">
          <mxGeometry width="200" height="43" as="geometry" />
        </mxCell>
        <mxCell id="GgJrNzVZVlJhMmaJBiFv-327" value="" style="swimlane;startSize=0;" parent="GgJrNzVZVlJhMmaJBiFv-326" vertex="1">
          <mxGeometry width="200" height="41.5" as="geometry" />
        </mxCell>
        <mxCell id="GgJrNzVZVlJhMmaJBiFv-328" value="&lt;font style=&quot;font-size: 24px;&quot;&gt;id&lt;/font&gt;" style="text;html=1;align=center;verticalAlign=middle;resizable=0;points=[];autosize=1;strokeColor=none;fillColor=none;" parent="GgJrNzVZVlJhMmaJBiFv-327" vertex="1">
          <mxGeometry x="80" y="1.5" width="40" height="40" as="geometry" />
        </mxCell>
        <mxCell id="GgJrNzVZVlJhMmaJBiFv-329" value="&lt;font color=&quot;#014e66&quot; style=&quot;font-size: 24px;&quot;&gt;PK&lt;/font&gt;" style="text;html=1;align=center;verticalAlign=middle;whiteSpace=wrap;rounded=0;" parent="GgJrNzVZVlJhMmaJBiFv-327" vertex="1">
          <mxGeometry x="-10" y="6.5" width="60" height="30" as="geometry" />
        </mxCell>
        <mxCell id="GgJrNzVZVlJhMmaJBiFv-330" value="" style="group" parent="GgJrNzVZVlJhMmaJBiFv-325" vertex="1" connectable="0">
          <mxGeometry x="200" width="200" height="43" as="geometry" />
        </mxCell>
        <mxCell id="GgJrNzVZVlJhMmaJBiFv-331" value="" style="swimlane;startSize=0;" parent="GgJrNzVZVlJhMmaJBiFv-330" vertex="1">
          <mxGeometry width="200" height="41.5" as="geometry">
            <mxRectangle width="50" height="40" as="alternateBounds" />
          </mxGeometry>
        </mxCell>
        <mxCell id="GgJrNzVZVlJhMmaJBiFv-332" value="&lt;font style=&quot;font-size: 24px;&quot;&gt;titulo&lt;/font&gt;" style="text;html=1;align=center;verticalAlign=middle;resizable=0;points=[];autosize=1;strokeColor=none;fillColor=none;" parent="GgJrNzVZVlJhMmaJBiFv-331" vertex="1">
          <mxGeometry x="65" y="1.5" width="70" height="40" as="geometry" />
        </mxCell>
        <mxCell id="GgJrNzVZVlJhMmaJBiFv-333" value="" style="group" parent="GgJrNzVZVlJhMmaJBiFv-325" vertex="1" connectable="0">
          <mxGeometry x="400" width="200" height="43" as="geometry" />
        </mxCell>
        <mxCell id="GgJrNzVZVlJhMmaJBiFv-334" value="" style="swimlane;startSize=0;" parent="GgJrNzVZVlJhMmaJBiFv-333" vertex="1">
          <mxGeometry width="200" height="41.5" as="geometry" />
        </mxCell>
        <mxCell id="GgJrNzVZVlJhMmaJBiFv-335" value="&lt;font style=&quot;font-size: 24px;&quot;&gt;ano&lt;/font&gt;" style="text;html=1;align=center;verticalAlign=middle;resizable=0;points=[];autosize=1;strokeColor=none;fillColor=none;" parent="GgJrNzVZVlJhMmaJBiFv-334" vertex="1">
          <mxGeometry x="87" y="1.5" width="60" height="40" as="geometry" />
        </mxCell>
        <mxCell id="GgJrNzVZVlJhMmaJBiFv-336" value="" style="group" parent="GgJrNzVZVlJhMmaJBiFv-325" vertex="1" connectable="0">
          <mxGeometry x="600" width="200" height="43" as="geometry" />
        </mxCell>
        <mxCell id="GgJrNzVZVlJhMmaJBiFv-337" value="" style="swimlane;startSize=0;" parent="GgJrNzVZVlJhMmaJBiFv-336" vertex="1">
          <mxGeometry width="200" height="41.5" as="geometry" />
        </mxCell>
        <mxCell id="GgJrNzVZVlJhMmaJBiFv-338" value="&lt;font style=&quot;font-size: 24px;&quot;&gt;duracao&lt;/font&gt;" style="text;html=1;align=center;verticalAlign=middle;resizable=0;points=[];autosize=1;strokeColor=none;fillColor=none;" parent="GgJrNzVZVlJhMmaJBiFv-337" vertex="1">
          <mxGeometry x="56" y="1.5" width="110" height="40" as="geometry" />
        </mxCell>
        <mxCell id="GgJrNzVZVlJhMmaJBiFv-339" value="" style="group" parent="GgJrNzVZVlJhMmaJBiFv-325" vertex="1" connectable="0">
          <mxGeometry x="800" width="200" height="43" as="geometry" />
        </mxCell>
        <mxCell id="GgJrNzVZVlJhMmaJBiFv-340" value="" style="swimlane;startSize=0;" parent="GgJrNzVZVlJhMmaJBiFv-339" vertex="1">
          <mxGeometry width="200" height="41.5" as="geometry" />
        </mxCell>
        <mxCell id="GgJrNzVZVlJhMmaJBiFv-341" value="&lt;font style=&quot;font-size: 24px;&quot;&gt;categoria_id&lt;/font&gt;" style="text;html=1;align=center;verticalAlign=middle;resizable=0;points=[];autosize=1;strokeColor=none;fillColor=none;" parent="GgJrNzVZVlJhMmaJBiFv-340" vertex="1">
          <mxGeometry x="41" y="1.5" width="150" height="40" as="geometry" />
        </mxCell>
        <mxCell id="GgJrNzVZVlJhMmaJBiFv-342" value="&lt;b&gt;Filme&lt;/b&gt;" style="text;html=1;align=left;verticalAlign=middle;whiteSpace=wrap;rounded=0;" parent="GgJrNzVZVlJhMmaJBiFv-324" vertex="1">
          <mxGeometry width="110" height="30" as="geometry" />
        </mxCell>
        <mxCell id="GgJrNzVZVlJhMmaJBiFv-343" value="" style="group" parent="1" vertex="1" connectable="0">
          <mxGeometry x="41" y="1130" width="1200" height="73" as="geometry" />
        </mxCell>
        <mxCell id="GgJrNzVZVlJhMmaJBiFv-344" value="" style="group" parent="GgJrNzVZVlJhMmaJBiFv-343" vertex="1" connectable="0">
          <mxGeometry width="1000" height="73" as="geometry" />
        </mxCell>
        <mxCell id="GgJrNzVZVlJhMmaJBiFv-345" value="" style="group" parent="GgJrNzVZVlJhMmaJBiFv-344" vertex="1" connectable="0">
          <mxGeometry y="30" width="1000" height="43" as="geometry" />
        </mxCell>
        <mxCell id="GgJrNzVZVlJhMmaJBiFv-346" value="" style="group" parent="GgJrNzVZVlJhMmaJBiFv-345" vertex="1" connectable="0">
          <mxGeometry width="280" height="43" as="geometry" />
        </mxCell>
        <mxCell id="GgJrNzVZVlJhMmaJBiFv-347" value="" style="swimlane;startSize=0;" parent="GgJrNzVZVlJhMmaJBiFv-346" vertex="1">
          <mxGeometry width="280" height="41.5" as="geometry" />
        </mxCell>
        <mxCell id="GgJrNzVZVlJhMmaJBiFv-348" value="&lt;font style=&quot;font-size: 24px;&quot;&gt;locacao_id&lt;/font&gt;" style="text;html=1;align=center;verticalAlign=middle;resizable=0;points=[];autosize=1;strokeColor=none;fillColor=none;" parent="GgJrNzVZVlJhMmaJBiFv-347" vertex="1">
          <mxGeometry x="109" y="1.5" width="140" height="40" as="geometry" />
        </mxCell>
        <mxCell id="GgJrNzVZVlJhMmaJBiFv-349" value="&lt;font color=&quot;#014e66&quot; style=&quot;font-size: 24px;&quot;&gt;PK&lt;/font&gt;" style="text;html=1;align=center;verticalAlign=middle;whiteSpace=wrap;rounded=0;" parent="GgJrNzVZVlJhMmaJBiFv-347" vertex="1">
          <mxGeometry x="-10" y="6.5" width="60" height="30" as="geometry" />
        </mxCell>
        <mxCell id="GgJrNzVZVlJhMmaJBiFv-411" value="&lt;font color=&quot;#ff3333&quot; style=&quot;font-size: 24px;&quot;&gt;FK&lt;/font&gt;" style="text;html=1;align=center;verticalAlign=middle;whiteSpace=wrap;rounded=0;" parent="GgJrNzVZVlJhMmaJBiFv-347" vertex="1">
          <mxGeometry x="29" y="8" width="60" height="30" as="geometry" />
        </mxCell>
        <mxCell id="GgJrNzVZVlJhMmaJBiFv-350" value="" style="group" parent="GgJrNzVZVlJhMmaJBiFv-345" vertex="1" connectable="0">
          <mxGeometry x="280" y="-0.5" width="200" height="43" as="geometry" />
        </mxCell>
        <mxCell id="GgJrNzVZVlJhMmaJBiFv-351" value="" style="swimlane;startSize=0;" parent="GgJrNzVZVlJhMmaJBiFv-350" vertex="1">
          <mxGeometry width="200" height="41.5" as="geometry">
            <mxRectangle width="50" height="40" as="alternateBounds" />
          </mxGeometry>
        </mxCell>
        <mxCell id="GgJrNzVZVlJhMmaJBiFv-352" value="&lt;font style=&quot;font-size: 24px;&quot;&gt;filme_id&lt;/font&gt;" style="text;html=1;align=center;verticalAlign=middle;resizable=0;points=[];autosize=1;strokeColor=none;fillColor=none;" parent="GgJrNzVZVlJhMmaJBiFv-351" vertex="1">
          <mxGeometry x="84" y="1.5" width="110" height="40" as="geometry" />
        </mxCell>
        <mxCell id="GgJrNzVZVlJhMmaJBiFv-412" value="&lt;font color=&quot;#ff3333&quot; style=&quot;font-size: 24px;&quot;&gt;FK&lt;/font&gt;" style="text;html=1;align=center;verticalAlign=middle;whiteSpace=wrap;rounded=0;" parent="GgJrNzVZVlJhMmaJBiFv-351" vertex="1">
          <mxGeometry x="29" y="8.5" width="60" height="30" as="geometry" />
        </mxCell>
        <mxCell id="GgJrNzVZVlJhMmaJBiFv-414" value="&lt;font color=&quot;#014e66&quot; style=&quot;font-size: 24px;&quot;&gt;PK&lt;/font&gt;" style="text;html=1;align=center;verticalAlign=middle;whiteSpace=wrap;rounded=0;" parent="GgJrNzVZVlJhMmaJBiFv-351" vertex="1">
          <mxGeometry x="-9" y="7.5" width="60" height="30" as="geometry" />
        </mxCell>
        <mxCell id="GgJrNzVZVlJhMmaJBiFv-359" value="&lt;b&gt;Locacao_filme&lt;/b&gt;" style="text;html=1;align=left;verticalAlign=middle;whiteSpace=wrap;rounded=0;" parent="GgJrNzVZVlJhMmaJBiFv-344" vertex="1">
          <mxGeometry width="110" height="30" as="geometry" />
        </mxCell>
        <mxCell id="GgJrNzVZVlJhMmaJBiFv-398" value="&lt;font color=&quot;#ff3333&quot; style=&quot;font-size: 24px;&quot;&gt;FK&lt;/font&gt;" style="text;html=1;align=center;verticalAlign=middle;whiteSpace=wrap;rounded=0;" parent="1" vertex="1">
          <mxGeometry x="830" y="1050" width="60" height="30" as="geometry" />
        </mxCell>
        <mxCell id="GgJrNzVZVlJhMmaJBiFv-399" value="&lt;h2&gt;&lt;font color=&quot;#d48383&quot;&gt;NOT NULL&lt;/font&gt;&lt;/h2&gt;" style="text;html=1;align=center;verticalAlign=middle;whiteSpace=wrap;rounded=0;" parent="1" vertex="1">
          <mxGeometry x="840" y="1086.5" width="200" height="30" as="geometry" />
        </mxCell>
        <mxCell id="V713UnPpELgrnKrd9nGP-4" value="" style="swimlane;startSize=0;" vertex="1" parent="1">
          <mxGeometry x="721" y="800" width="280" height="41.5" as="geometry" />
        </mxCell>
        <mxCell id="V713UnPpELgrnKrd9nGP-5" value="&lt;font style=&quot;font-size: 24px;&quot;&gt;cliente_id&lt;/font&gt;" style="text;html=1;align=center;verticalAlign=middle;resizable=0;points=[];autosize=1;strokeColor=none;fillColor=none;" vertex="1" parent="V713UnPpELgrnKrd9nGP-4">
          <mxGeometry x="79" y="1.5" width="120" height="40" as="geometry" />
        </mxCell>
        <mxCell id="V713UnPpELgrnKrd9nGP-6" value="&lt;font color=&quot;#ff3333&quot; style=&quot;font-size: 24px;&quot;&gt;FK&lt;/font&gt;" style="text;html=1;align=center;verticalAlign=middle;whiteSpace=wrap;rounded=0;" vertex="1" parent="1">
          <mxGeometry x="440" y="806" width="56" height="30" as="geometry" />
        </mxCell>
        <mxCell id="V713UnPpELgrnKrd9nGP-7" value="&lt;h2&gt;&lt;font color=&quot;#d48383&quot;&gt;NOT NULL&lt;/font&gt;&lt;/h2&gt;" style="text;html=1;align=center;verticalAlign=middle;whiteSpace=wrap;rounded=0;" vertex="1" parent="1">
          <mxGeometry x="440" y="842.5" width="280" height="30" as="geometry" />
        </mxCell>
        <mxCell id="V713UnPpELgrnKrd9nGP-8" value="&lt;font color=&quot;#ff3333&quot; style=&quot;font-size: 24px;&quot;&gt;FK&lt;/font&gt;" style="text;html=1;align=center;verticalAlign=middle;whiteSpace=wrap;rounded=0;" vertex="1" parent="1">
          <mxGeometry x="720" y="806" width="56" height="30" as="geometry" />
        </mxCell>
        <mxCell id="V713UnPpELgrnKrd9nGP-9" value="&lt;h2&gt;&lt;font color=&quot;#d48383&quot;&gt;NOT NULL&lt;/font&gt;&lt;/h2&gt;" style="text;html=1;align=center;verticalAlign=middle;whiteSpace=wrap;rounded=0;" vertex="1" parent="1">
          <mxGeometry x="720" y="842.5" width="280" height="30" as="geometry" />
        </mxCell>
        <mxCell id="V713UnPpELgrnKrd9nGP-10" value="" style="group" vertex="1" connectable="0" parent="1">
          <mxGeometry x="40" y="1280" width="280" height="43" as="geometry" />
        </mxCell>
        <mxCell id="V713UnPpELgrnKrd9nGP-11" value="" style="swimlane;startSize=0;" vertex="1" parent="V713UnPpELgrnKrd9nGP-10">
          <mxGeometry width="280" height="41.5" as="geometry" />
        </mxCell>
        <mxCell id="V713UnPpELgrnKrd9nGP-12" value="&lt;font style=&quot;font-size: 24px;&quot;&gt;pessoa_id&lt;/font&gt;" style="text;html=1;align=center;verticalAlign=middle;resizable=0;points=[];autosize=1;strokeColor=none;fillColor=none;" vertex="1" parent="V713UnPpELgrnKrd9nGP-11">
          <mxGeometry x="114" y="1.5" width="130" height="40" as="geometry" />
        </mxCell>
        <mxCell id="V713UnPpELgrnKrd9nGP-13" value="&lt;font color=&quot;#014e66&quot; style=&quot;font-size: 24px;&quot;&gt;PK&lt;/font&gt;" style="text;html=1;align=center;verticalAlign=middle;whiteSpace=wrap;rounded=0;" vertex="1" parent="V713UnPpELgrnKrd9nGP-11">
          <mxGeometry x="-10" y="6.5" width="60" height="30" as="geometry" />
        </mxCell>
        <mxCell id="V713UnPpELgrnKrd9nGP-14" value="&lt;font color=&quot;#ff3333&quot; style=&quot;font-size: 24px;&quot;&gt;FK&lt;/font&gt;" style="text;html=1;align=center;verticalAlign=middle;whiteSpace=wrap;rounded=0;" vertex="1" parent="V713UnPpELgrnKrd9nGP-11">
          <mxGeometry x="29" y="8" width="60" height="30" as="geometry" />
        </mxCell>
        <mxCell id="V713UnPpELgrnKrd9nGP-15" value="" style="group" vertex="1" connectable="0" parent="1">
          <mxGeometry x="320" y="1279.5" width="200" height="43" as="geometry" />
        </mxCell>
        <mxCell id="V713UnPpELgrnKrd9nGP-16" value="" style="swimlane;startSize=0;" vertex="1" parent="V713UnPpELgrnKrd9nGP-15">
          <mxGeometry width="200" height="41.5" as="geometry">
            <mxRectangle width="50" height="40" as="alternateBounds" />
          </mxGeometry>
        </mxCell>
        <mxCell id="V713UnPpELgrnKrd9nGP-17" value="&lt;font style=&quot;font-size: 24px;&quot;&gt;telefone&lt;/font&gt;" style="text;html=1;align=center;verticalAlign=middle;resizable=0;points=[];autosize=1;strokeColor=none;fillColor=none;" vertex="1" parent="V713UnPpELgrnKrd9nGP-16">
          <mxGeometry x="84" y="1.5" width="110" height="40" as="geometry" />
        </mxCell>
        <mxCell id="V713UnPpELgrnKrd9nGP-18" value="&lt;font color=&quot;#ff3333&quot; style=&quot;font-size: 24px;&quot;&gt;FK&lt;/font&gt;" style="text;html=1;align=center;verticalAlign=middle;whiteSpace=wrap;rounded=0;" vertex="1" parent="V713UnPpELgrnKrd9nGP-16">
          <mxGeometry x="29" y="8.5" width="60" height="30" as="geometry" />
        </mxCell>
        <mxCell id="V713UnPpELgrnKrd9nGP-19" value="&lt;font color=&quot;#014e66&quot; style=&quot;font-size: 24px;&quot;&gt;PK&lt;/font&gt;" style="text;html=1;align=center;verticalAlign=middle;whiteSpace=wrap;rounded=0;" vertex="1" parent="V713UnPpELgrnKrd9nGP-16">
          <mxGeometry x="-9" y="7.5" width="60" height="30" as="geometry" />
        </mxCell>
        <mxCell id="V713UnPpELgrnKrd9nGP-20" value="&lt;b&gt;Telefone_pessoa&lt;/b&gt;" style="text;html=1;align=left;verticalAlign=middle;whiteSpace=wrap;rounded=0;" vertex="1" parent="1">
          <mxGeometry x="40" y="1250" width="110" height="30" as="geometry" />
        </mxCell>
      </root>
    </mxGraphModel>
  </diagram>
</mxfile>
